Simulation
nRows=19
nColumns=15
endheader
time  TH_x TH_y TH_z SC_y  SC_z  SC_x  AC_y  AC_z  AC_x  GH_y  GH_z  GH_yy  EL_x  PS_y
0.0  0.000000  0.000000  0.000000  -18.749322950774257  -1.2071810186006513  0.12992834611634735  60.36605527405199  5.5061930987733785  -7.902199313353662  -1.8834214877937698  15.942525873976509  34.24871527127295  29.867833241822627  120.000000
0.04054054054054054  0.000000  0.000000  0.000000  -18.706251798791644  -0.719019928178566  -0.4978859845314276  60.90846414383921  7.117567626738957  -6.979927290855579  2.580400343910427  17.323623367343494  27.543355185612103  30.119437225041874  120.000000
0.08108108108108109  0.000000  0.000000  0.000000  -18.785074126952264  -0.34320794192033677  -1.2474931336927761  61.4225145138759  8.642258748727224  -6.071472584140444  6.154794379934753  18.718941803039655  21.71572750754748  30.43871550947904  120.000000
0.12162162162162163  0.000000  0.000000  0.000000  -18.956056209989978  -0.04688746714068604  -2.073566698775553  61.93397856970103  10.115569435232892  -5.175814007137627  9.051259474202242  20.109335194188635  16.56251555836168  30.86846652687361  120.000000
0.16216216216216217  0.000000  0.000000  0.000000  -19.21317530408171  0.18298641485047326  -2.9420406112339688  62.46665247046021  11.566014648930881  -4.302632839441692  11.480571810851465  21.50883555829318  11.848589949096384  31.421612891534735  120.000000
0.20270270270270271  0.000000  0.000000  0.000000  -19.52049450861041  0.3677193560868953  -3.8006720002631873  63.03515123251305  12.993827611959071  -3.4613406353279794  13.598467900392649  22.952555206443005  7.4019433068538465  32.08082068167255  120.000000
0.24324324324324326  0.000000  0.000000  0.000000  -19.846823426248722  0.5282232188154868  -4.592641331805077  63.64976050143907  14.382531427367647  -2.6584792567941227  15.487610689035865  24.485395805546776  3.1301381934238885  32.82458551836546  120.000000
0.28378378378378377  0.000000  0.000000  0.000000  -20.162365688590157  0.6895200280757098  -5.265160591995307  64.31014623977396  15.702212968058399  -1.901529693474151  17.173945855336555  26.138192645459085  -0.9986590735464371  33.62532338169472  120.000000
0.32432432432432434  0.000000  0.000000  0.000000  -20.458298732914884  0.8731411620252919  -5.774640816096631  65.0075811833891  16.924531646592346  -1.1987488110339855  18.653031653038898  27.915586946637248  -4.972334611627722  34.454741513434044  120.000000
0.3648648648648649  0.000000  0.000000  0.000000  -20.755289585788933  1.0900288387614163  -6.091580832123065  65.7271324194565  18.031151050198638  -0.5628687228863021  19.931155853195495  29.798525348801725  -8.78746552755949  35.28851044031805  120.000000
0.40540540540540543  0.000000  0.000000  0.000000  -21.090199943265304  1.3453586352149345  -6.199775813121663  66.44810580254715  19.013977712640376  -0.004719807795376385  21.035307023107226  31.749300957075253  -12.458557595054597  36.102976797610744  120.000000
0.44594594594594594  0.000000  0.000000  0.000000  -21.50049507138301  1.6368954698156437  -6.09637804150383  67.14995202046964  19.873615287182705  0.46638511042121117  22.00015040091267  33.724002092095084  -16.0065254688843  36.87766389833525  120.000000
0.4864864864864865  0.000000  0.000000  0.000000  -22.007769896111956  1.956562759846486  -5.789245277864236  67.81692068568124  20.613620455669288  0.8470051468272245  22.84868465334202  35.68214630360909  -19.437126572004203  37.59367289952494  120.000000
0.5270270270270271  0.000000  0.000000  0.000000  -22.604500718150828  2.2946237140012333  -5.297036467257322  68.44020497559734  21.235114399942805  1.1449745405863379  23.57859480531503  37.59136759703719  -22.725909052432517  38.232859849050094  120.000000
0.5675675675675675  0.000000  0.000000  0.000000  -23.258399748475703  2.639061279100056  -4.649169285345445  69.0204908253639  21.738395429472746  1.3766568138668682  24.167467468745663  39.43003975703736  -25.820746974162372  38.77839472634643  120.000000
0.6081081081081081  0.000000  0.000000  0.000000  -23.925014919930234  2.9776840481471574  -3.883933031252588  69.56642366150115  22.123462994945356  1.5632714915283408  24.586376353877164  41.18657519167459  -28.658584858879614  39.21714978472923  120.000000
0.6486486486486487  0.000000  0.000000  0.000000  -24.562662404087618  3.301621994109933  -3.04342402049691  70.08844875165516  22.392014867469097  1.7255632707449184  24.81918840574148  42.856844881667854  -31.1868193798415  39.541592745686195  120.000000
0.6891891891891893  0.000000  0.000000  0.000000  -25.14324167658139  3.6060431641610333  -2.1680160642558595  70.59385930012361  22.55017034081209  1.8801980328219536  24.871522088303525  44.439993911737226  -33.37524367564902  39.751445580427365  120.000000
0.7297297297297298  0.000000  0.000000  0.000000  -25.655299657331735  3.8896052327550374  -1.2920945685124794  71.08407095713493  22.609794731455736  2.0365519193671977  24.771892369134132  45.9367672856207  -35.22176401845287  39.85292075282882  120.000000
